# xmcd
#
# Track frame offsets:
#       150
#       20742
#       42377
#       56355
#       71337
#       83610
#       104867
#       120502
#       135200
#       152232
#       171877
#       191567
#       208800
#
# Disc length: 2829 seconds
#
# Revision: 0
# Processed by: cddbd v1.4PL0 Copyright (c) Steve Scherf et al.
# Submitted via: CD-DA_X-Tractor v0.21
#
DISCID=b10b0b0d
DTITLE=Steira Dies'l - Vullmond
DYEAR=1900
DGENRE=
TTITLE0=Steira Dies'l
TTITLE1=Vullmond über Graz
TTITLE2=Dei' Muatta' Tanzt Net'
TTITLE3=Waunn I Aufsteh'
TTITLE4=Bin I Net Arg
TTITLE5=Dei' Oide Bluejean
TTITLE6=I Geh' Jetzt
TTITLE7=Rock and Roll Superstar
TTITLE8=Des Große Glück
TTITLE9=Er Sitzt Am Fenster
TTITLE10=Rock and Roll Band
TTITLE11=Laß Die Finger Von Mir
TTITLE12=Anblagt
EXTD=
EXTT0=
EXTT1=
EXTT2=
EXTT3=
EXTT4=
EXTT5=
EXTT6=
EXTT7=
EXTT8=
EXTT9=
EXTT10=
EXTT11=
EXTT12=
PLAYORDER=
